<svg xmlns="http://www.w3.org/2000/svg" viewBox="0 0 1525.89 712.01"><defs><style>.a{fill:#000000;fill-rule:evenodd;}</style></defs><title>Syberia OS</title><path class="a" d="M1598.78,704.8l-597.5-597.51a47,47,0,0,0-66.47,0L504.18,537.92,429.23,463a47,47,0,0,0-66.47,0L100.42,725.3a47,47,0,0,0,66.47,66.47L396,562.67l75,75a47,47,0,0,0,66.46,0C553,622,863.71,311.33,968,207l564.27,564.28a47,47,0,1,0,66.47-66.47Z" transform="translate(-86.66 -93.53)"/><path class="a" d="M1290.93,660.89l-234-234a32.5,32.5,0,0,0-46,0l-74.24,74.24a32.5,32.5,0,0,0,46,46l51.26-51.26L1245,706.85a32.5,32.5,0,0,0,46-46Z" transform="translate(-86.66 -93.53)"/></svg>